<svg xmlns="http://www.w3.org/2000/svg" height="294" width="252"><g fill="none" fill-rule="evenodd"><path d="M39.76 130.84a8.28 8.28 0 11-16.47-1.66 8.28 8.28 0 0116.47 1.66" fill="#FFF"/><path d="M36.98 134.3l10.48 5.94m.91 6.27L35.73 157.3" stroke="#FFF" stroke-width="2"/><path d="M39.88 159.35a5.67 5.67 0 11-11.28-1.13 5.67 5.67 0 0111.27 1.13m17.72-16.1a5.7 5.7 0 11-11.36-1.15 5.7 5.7 0 0111.36 1.15M99.02 26.87h29.82a4.59 4.59 0 100-9.18H99.02a4.59 4.59 0 100 9.19m11.4 18.33l29.82-.01a4.59 4.59 0 000-9.18l-29.82.02a4.59 4.59 0 100 9.17" fill="#FFF"/><path d="M112.8 26.86h15.78a4.59 4.59 0 100 9.17H112.8a4.59 4.59 0 000-9.17m71.72 108.8a9.98 9.98 0 11-19.86-2 9.98 9.98 0 0119.86 2" fill="#FFF"/><path d="M179.26 141.75l12.64 7.17m1.1 7.56l-15.25 13" stroke="#FFF" stroke-width="2"/><path d="M184.67 170.06a6.83 6.83 0 11-13.6-1.38 6.83 6.83 0 0113.6 1.38m18.67-16.74a6.88 6.88 0 11-13.7-1.38 6.88 6.88 0 0113.7 1.38" fill="#FFF"/><path d="M151.93 192.32a2.22 2.22 0 11-4.44 0 2.22 2.22 0 014.44 0zm73.34-76.26a2.22 2.22 0 11-4.45 0 2.22 2.22 0 014.45 0zm-8.89 35.02a2.22 2.22 0 11-4.45 0 2.22 2.22 0 014.45 0zm-39.46-43.44a2.22 2.22 0 11-4.45 0 2.22 2.22 0 014.45 0zm18.37-15.47a2.22 2.22 0 11-4.44 0 2.22 2.22 0 014.44 0zm6.77 88.54a2.22 2.22 0 11-4.45 0 2.22 2.22 0 014.45 0z" stroke="#FFF" stroke-width="2"/><path stroke="#FFF" stroke-width="2" d="M214.4 153.3l-1.9 20.19-10.94 5.99m-27.9-4.69l-6.35 9.82h-11.36l-4.51 6.48m23.5-65.92v-15.8m45.88 7.88l-12.84 7.9-15.3-7.9V94.39"/><path d="M166.59 65.94h-3.95a4.76 4.76 0 01-4.75-4.75 4.76 4.76 0 014.75-4.74h3.95a4.76 4.76 0 014.74 4.74 4.76 4.76 0 01-4.74 4.75" fill="#FFF"/><path d="M174.82 30.03a29.48 29.48 0 1158.96 0 29.48 29.48 0 01-58.96 0" fill="#C60309"/><path d="M205.95 38.39c.5.5.79 1.14.79 1.92s-.29 1.47-.79 1.97a2.9 2.9 0 01-2 .75c-.78 0-1.43-.29-1.93-.79-.57-.5-.82-1.14-.82-1.93s.25-1.42.82-1.92c.5-.5 1.15-.75 1.93-.75.79 0 1.47.25 2 .75m4.29-19.47a6.48 6.48 0 012.14 5.15 7.2 7.2 0 01-1.22 4.25c-.07.1-.14.18-.22.26-.41.43-1.4 1.35-2.95 2.7a5.07 5.07 0 00-1.43 1.75 5.2 5.2 0 00-.54 2.36v.5h-4.1v-.5c0-1.36.21-2.54.71-3.5.46-.97 1.86-2.47 4.18-4.54l.43-.5c.64-.78.96-1.64.96-2.53a3.9 3.9 0 00-1-2.79c-.68-.68-1.64-1-2.86-1-1.53 0-2.64.46-3.35 1.43a4.5 4.5 0 00-.76 1.9 2 2 0 01-1.97 1.63 2.02 2.02 0 01-1.99-2.43 7.25 7.25 0 012.08-3.78c1.53-1.5 3.6-2.25 6.25-2.25 2.32 0 4.2.6 5.64 1.9" fill="#FFF"/><path d="M52.04 76.13s21.81 5.36 27.3 15.95c5.58 10.74-6.35 9.26-15.72 4.93-10.86-5-24.7-11.82-11.58-20.88" fill="#FFB594"/><path d="M90.48 67.5l-.45 2.9c-.75.49-4.74-2.67-4.74-2.67l-1.65.75-1.34-5.68s6.81-4.6 8.91-5.02c2.45-.5 9.89.94 10.7 2.28 0 0 1.32.48-2.22.69-3.55.2-5.05.45-6.8 3.13a129.64 129.64 0 01-2.4 3.62" fill="#FFC6A0"/><path d="M128.06 111.37c-2.63-7.73-6.15-13.18-8.92-15.48-3.5-2.9-9.34-2.23-11.37-4.19-1.27-1.23-3.21-1.2-3.21-1.2s-14.98-3.15-16.83-3.47c-2.37-.41-2.13-.72-6.06-1.4-1.57-1.92-2.91-1.13-2.91-1.13l-7.11-1.38c-.86-1.48-2.43-1.03-2.43-1.03l-2.46-.9C65.1 91.18 59.02 95 59.02 95c1.8 1.12 15.7 8.3 15.7 8.3l5.1 37.11s-3.31 5.7 1.35 9.11c0 0 19.89-3.74 34.92-.33 0 0 3.05-2.54.98-8.8.52-3.01 1.39-8.27 1.73-11.63.39.78 2.02 1.92 3.14 3.48 0 0 9.4-7.36 11.05-14.01-.83-.72-1.6-1.59-2.26-2.45-.57-.74-.36-2.06-.77-2.72-.67-1.08-1.8-1.38-1.9-1.68" fill="#FFF"/><path d="M101.09 290s4.3 2.04 7.35 1.02c2.83-.94 4.53.67 7.08 1.18 2.55.5 6.88 1.1 11.69-1.26-.1-5.51-6.89-3.98-11.96-6.72-2.56-1.38-3.78-4.72-3.6-8.8h-9.4s-1.4 10.52-1.16 14.58" fill="#CBD1D1"/><path d="M101.07 289.83s2.42 1.27 6.76.65c3.05-.44 3.7.48 7.42 1.03 3.71.55 10.72-.07 11.82-.9.42 1.1-.34 2.07-.34 2.07s-1.51.6-4.81.82c-2.03.14-5.8.3-7.61-.5-1.79-1.37-5.25-1.9-5.73-.24-3.92.95-7.35-.29-7.35-.29l-.16-2.64z" fill="#2B0849"/><path d="M108.34 276.04h3.1s-.1 6.7 4.53 8.56c-4.64.62-8.56-2.3-7.63-8.56" fill="#A4AABA"/><path d="M57.54 272.4s-2.1 7.42-4.48 12.3c-1.8 3.7-4.23 7.5 5.46 7.5 6.65 0 8.96-.48 7.43-6.6-1.53-6.12.26-13.2.26-13.2h-8.67z" fill="#CBD1D1"/><path d="M51.48 289.8s2.1 1.16 6.63 1.16c6.08 0 8.25-1.65 8.25-1.65s.6 1.12-.62 2.17c-1 .85-3.6 1.59-7.4 1.54-4.14-.04-5.82-.56-6.73-1.16-.82-.55-.68-1.58-.13-2.07" fill="#2B0849"/><path d="M58.42 274.3s.03 1.52-.32 2.93c-.34 1.42-1.07 3.1-1.13 4.14-.05 1.15 4.54 1.58 5.16.04.62-1.55 1.3-6.43 1.91-7.26.62-.82-4.9-2.11-5.62.15" fill="#A4AABA"/><path d="M99.66 278.51l13.38.1s1.3-54.52 1.85-64.4c.55-9.89 3.78-43.37 1-63.14l-12.54-.64-22.85.78s-.44 3.97-1.2 9.98c-.06.5-.68.84-.75 1.36-.07.59.43 1.36.32 1.97-2.36 14.08-6.37 33.1-8.74 46.67-.12.67-1.24 1.01-1.46 2.7-.04.3.21 1.52.11 1.8-6.87 18.73-10.95 47.83-14.27 61.88l14.6-.02s2.2-8.57 4.03-16.97c2.81-12.88 23.11-85 23.11-85l3.02-.53 1.04 46.35s-.22 1.24.34 2.02c.56.79-.56 1.12-.4 2.25l.4 1.79s-.45 7.18-.9 11.89c-.45 4.7-.09 39.16-.09 39.16" fill="#C60309"/><path d="M76.08 221.63c1.16.09 4.04-2.02 6.96-4.94m23.32 8.45s2.77-1.1 6.1-3.88" stroke="#C60309" stroke-width="1.05" stroke-linecap="round" stroke-linejoin="round"/><path d="M107.28 222.1s2.77-1.11 6.1-3.88" stroke="#C60309" stroke-linecap="round" stroke-linejoin="round"/><path d="M74.74 224.77s2.62-.6 6.5-3.37m4.79-69.77c-.27 3.11.3 8.53-4.34 9.13m21.94-10.88s.1 14.01-1.3 15.06c-2.22 1.67-2.99 1.95-2.99 1.95m.45-16.45s.04 12.88-1.2 24.37m-4.92 1.1s7.21-1.66 9.43-1.66m-28.79 31.61a212.01 212.01 0 01-.98 4.56s-1.46 1.83-1 3.78c.44 1.94-.95 2.04-5 15.35-1.69 5.6-4.48 18.6-6.34 27.6l-.23 1.12m14.93-60.46a320.93 320.93 0 01-.88 4.75m7.78-50.33l-1.2 10.47s-1.1.15-.5 2.24c.12 1.35-2.67 15.78-5.18 30.43m-19.59 79.05h13.31" stroke="#C60309" stroke-width="1.05" stroke-linecap="round" stroke-linejoin="round"/><path d="M116.24 148.22s-17.05-3.1-35.9.2c.17 2.51 0 4.15 0 4.15s14.7-2.82 35.67-.31c.26-2.36.23-4.04.23-4.04" fill="#192064"/><path d="M106.32 151.16v-4.9a.81.81 0 00-.77-.82c-2.44-.1-5.07-.1-7.84-.02a.82.82 0 00-.79.82v4.9a.81.81 0 00.83.82c2.38-.06 4.97-.07 7.73.02a.81.81 0 00.84-.81" fill="#FFF"/><path d="M105.2 150.23v-3.07a.64.64 0 00-.61-.65 94.32 94.32 0 00-5.87 0 .65.65 0 00-.63.64v3.07a.64.64 0 00.66.64 121.12 121.12 0 015.8.02c.35 0 .66-.28.66-.65" fill="#192064"/><path d="M100.26 275.42h12.34m-11.16-4.89c0 3.39.04 5.79.1 6.5m-.09-12.48a915.75 915.75 0 00-.01 4.33m-.45-93.91l.9 44.64s.67 1.57-.23 2.69c-.9 1.12 2.47.67.9 2.24-1.57 1.57.9 1.12 0 3.37-.6 1.49-1 21.1-1.1 35.14" stroke="#C60309" stroke-width="1.05" stroke-linecap="round" stroke-linejoin="round"/><path d="M46.88 83.43s-.52 6.04 7.22 5.55c11.2-.71 9.22-9.35 31.54-21.66-.79-2.7-2.45-4.74-2.45-4.74s-11.07 3.11-22.58 8.05c-6.77 2.9-13.4 6.35-13.73 12.8m57.58 7.63l.94-5.38-8.88-11.43-5.04 5.38-1.74 7.83a.32.32 0 00.1.32c.97.8 6.5 5.01 14.35 3.54a.33.33 0 00.27-.26" fill="#FFC6A0"/><path d="M93.94 79.39s-4.53-2.86-2.43-6.86c1.62-3.09 4.51 1.13 4.51 1.13s.52-3.64 3.12-3.64c.52-1.04 1.56-4.16 1.56-4.16s11.45 2.6 13.53 3.12c0 5.2-2.3 19.43-7.84 19.86-8.9.7-12.45-9.45-12.45-9.45" fill="#FFC6A0"/><path d="M113.87 73.45c2.6-2.09 3.47-9.73 3.47-9.73s-2.48-.49-6.64-2.05c-4.68-2.08-12.8-4.74-17.48.98-9.66 3.22-2.05 19.82-2.05 19.82l2.72-3.02s-3.94-3.29-2.08-6.24c2.17-3.46 3.92 1.07 3.92 1.07s.63-2.39 3.58-3.34c.35-.71 1.03-2.67 1.43-3.85a1.07 1.07 0 011.26-.7c2.4.55 8.68 2.02 11.36 2.66.52.12.87.61.82 1.15l-.3 3.25z" fill="#520038"/><path d="M104.98 76.06c-.1.61-.59 1.04-1.07.96-.5-.08-.8-.64-.7-1.25.1-.61.58-1.04 1.07-.96.49.08.8.64.7 1.25m7.15 1.63c-.1.61-.58 1.04-1.07.96-.49-.08-.8-.64-.7-1.25.1-.61.59-1.04 1.07-.96.5.08.8.64.7 1.25" fill="#552950"/><path stroke="#DB836E" stroke-width="1.12" stroke-linecap="round" stroke-linejoin="round" d="M110.13 74.84l-.9 1.61-.3 4.36h-2.22"/><path d="M110.85 74.48s1.79-.72 2.5.54" stroke="#5C2552" stroke-width="1.12" stroke-linecap="round" stroke-linejoin="round"/><path d="M92.39 74.28s.47-1.11 1.1-.71c.65.4 1.28 1.43.57 1.99-.72.55.16 1.67.16 1.67" stroke="#DB836E" stroke-width="1.12" stroke-linecap="round" stroke-linejoin="round"/><path d="M103.29 72.93s1.83 1.11 4.13.95" stroke="#5C2552" stroke-width="1.12" stroke-linecap="round" stroke-linejoin="round"/><path d="M103.69 81.76s2.22 1.2 4.37 1.2m-3.42 1.35s.95.4 1.51.32M94.7 81.2s2.31 7.4 10.43 7.63" stroke="#DB836E" stroke-width="1.12" stroke-linecap="round" stroke-linejoin="round"/><path d="M81.45 89.38s.45 5.65-4.93 12.8M69 82.64s-.73 9.29-8.2 14.21" stroke="#E4EBF7" stroke-width="1.1" stroke-linecap="round" stroke-linejoin="round"/><path d="M129.4 122.86s-5.27 7.4-9.42 10.77" stroke="#E4EBF7" stroke-width="1.05" stroke-linecap="round" stroke-linejoin="round"/><path d="M119.3 107.33s.46 4.36-2.12 32.06" stroke="#E4EBF7" stroke-width="1.1" stroke-linecap="round" stroke-linejoin="round"/><path d="M150.03 151.23h-49.84a1.01 1.01 0 01-1-1v-31.7c0-.55.44-1 1-1h49.84c.56 0 1 .45 1 1v31.7a1.01 1.01 0 01-1 1" fill="#F2D7AD"/><path d="M150.29 151.23h-19.86v-33.7h20.78v32.78a.92.92 0 01-.92.92" fill="#F4D19D"/><path d="M123.55 127.9H92.92a.52.52 0 01-.43-.82l6.38-9.11c.2-.28.51-.45.85-.45h31.1l-7.27 10.38z" fill="#F2D7AD"/><path fill="#CC9B6E" d="M123.69 128.45H99.25v-.52h24.17l7.18-10.26.43.3z"/><path d="M158.3 127.9h-18.67a2.07 2.07 0 01-1.66-.83l-7.16-9.54h19.97c.49 0 .95.23 1.24.62l6.7 8.92a.52.52 0 01-.42.83" fill="#F4D19D"/><path fill="#CC9B6E" d="M157.85 128.48h-19.39L130.61 118l.41-.3 7.7 10.26h19.13zm-27.3 22.2l-.03-8.17h.52l.03 8.17z"/><path fill="#CC9B6E" d="M130.51 139.78l-.08-21.41h.52l.08 21.41zm-18.63 1.15l-.5-.14 1.48-5.17.5.14zm-3.44.13l-2.68-2.94 2.66-3.43.41.32-2.4 3.09 2.39 2.61zm8.17 0l-.39-.35 2.39-2.61-2.4-3.1.41-.3 2.66 3.43z"/><path d="M154.32 131.9l-3.12-1.97.04 3.52-1.04.09c-1.68.11-3.64.23-4.8.23-1.9 0-2.68 2.26 2.24 2.65l-2.65-.6s-2.17 1.32.5 2.3c0 0-1.57 1.22.57 2.58-.59 3.5 5.24 4.06 7.12 3.59 1.88-.47 4.23-2.36 4.49-5.16.28-3.08-.9-5.43-3.35-7.24" fill="#FFC6A0"/><path d="M153.69 133.58s-6.53.47-8.36.37c-1.84-.1-1.9 2.19 2.36 2.26a40.5 40.5 0 005.45-.04" stroke="#DB836E" stroke-width="1.05" stroke-linecap="round" stroke-linejoin="round"/><path d="M145.16 135.88c-1.85 1.34.56 2.35.56 2.35s3.48.9 6.73.62" stroke="#DB836E" stroke-width="1.05" stroke-linecap="round" stroke-linejoin="round"/><path d="M151.89 141.71s-6.28.11-6.73-2.13c-.22-1.35.45-1.4.45-1.4m.5 2.69s-1.1 3.16 5.44 3.53m-.35-14.47v3.48M52.84 89.29c3.53-.34 8.42-1.25 13.58-7.76" stroke="#DB836E" stroke-width="1.05" stroke-linecap="round" stroke-linejoin="round"/><path d="M168.57 248.32a6.65 6.65 0 01-6.65-6.65v-66.46a6.65 6.65 0 1113.3 0v66.46a6.65 6.65 0 01-6.65 6.65" fill="#5BA02E"/><path d="M176.54 247.65a6.65 6.65 0 01-6.64-6.64v-33.24a6.65 6.65 0 1113.29 0v33.24a6.65 6.65 0 01-6.65 6.64" fill="#92C110"/><path d="M186.44 293.61h-27.52a3.19 3.19 0 01-3.19-3.18v-46.14a3.19 3.19 0 013.19-3.19h27.52a3.19 3.19 0 013.2 3.2v46.13a3.19 3.19 0 01-3.2 3.18" fill="#F2D7AD"/><path d="M88.98 89.48s7.77 5.38 16.6 2.84" stroke="#E4EBF7" stroke-width="1.1" stroke-linecap="round" stroke-linejoin="round"/></g></svg>